<svg class="icon" viewBox="0 0 1024 1024" xmlns="http://www.w3.org/2000/svg" width="64" height="64"><defs><style/></defs><path d="M13.8 510.5a497.5 497.5 0 1 0 995 0 497.5 497.5 0 1 0-995 0z" fill="#3FB2A4"/><path d="M219.5 174.4c14.1 1.3 24.5 4.9 31.3 10.8 6.7 5.9 10.1 12.3 10.1 19.3 0 6.8-3.4 13.3-10.1 19.6-6.7 6.2-14.9 10.3-24.5 12.2 7.9 1.1 14.4 3.8 19.5 7.9 5.1 4.2 7.7 8.7 7.7 13.5 0 2.4-1 5.3-2.9 8.5s-4.6 6.1-7.9 8.7c-3.3 2.6-7.4 4.6-12.3 6.1-4.8 1.5-9.1 2.5-12.7 3-3.6.5-10 .7-19 .7-4 0-7.4-.1-10.2-.3l1-4.8c4.5.9 9.6 1.4 15.2 1.4 2.6-19.7 3.8-39 3.8-57.9 0-15.2-.5-30.2-1.6-45.2-20.1 1.3-30.1 8.4-30.1 21.4 0 5.3 3.1 8 9.2 8 1.1 0 2.7-.6 4.6-1.8 2-1.2 2.9-2.4 2.9-3.7 0-.4-.4-.7-1.1-1.1-.7-.3-1.3-.5-1.9-.5-1.1 0-2.2.7-3.3 2.2-1-.3-1.4-1.1-1.4-2.4 0-2.2 1.8-3.3 5.4-3.3 1.2 0 2.3.6 3.2 1.7.9 1.1 1.3 2.4 1.3 3.8 0 2.7-1 4.9-3.1 6.6s-4.3 2.5-6.9 2.5c-3.3 0-6.7-1.5-10.4-4.5-3.6-3-5.4-6.2-5.4-9.6 0-5.2 3.1-10 9.3-14.3 6.2-4.3 15.3-7 27.3-8.2 0-6.4-.4-11.9-1.2-16.4 6.4 0 11.2.4 14.3 1.3.1 6.8 0 11.8-.1 14.8zm-.8 59.7c10.4 0 18-3 22.7-8.9 4.7-5.9 7-11.5 7-16.7 0-8.1-1.7-14.2-5.1-18.4-3.4-4.2-6.6-7.1-9.8-8.7-3.1-1.6-7.9-2.8-14.2-3.7 0 7.8-.9 21.8-2.6 42.1-1.7 20.2-4.1 40.4-7.2 60.6 6.6.4 13.5-1.1 20.9-4.5 7.3-3.4 11-8.8 11-16 0-14.4-7.6-21.6-22.7-21.6v-4.2zm97.4-8.9c5.4-4.3 10-7.2 13.8-8.8 3.8-1.6 8-2.4 12.6-2.4 9.1 0 16.5 3.3 22.2 9.8 5.8 6.5 8.6 14.9 8.6 25.2 0 11.5-3.5 21.3-10.4 29.3s-15.5 12-25.5 12c-8.5 0-16.4-2.9-23.8-8.6-.9-.8-1.6-1.1-2.1-1.1-.8.1-2 1.7-3.5 4.8-1.7 3.1-2.9 4.7-3.8 4.7-1.1 0-1.6-.8-1.6-2.3 0-.6.2-1.8.6-3.6.5-2 .7-5.3.7-9.8v-87.5c0-6.7-.5-11-1.5-12.9-.5-.9-1.4-1.8-2.5-2.7-1.1-.9-2-1.3-2.7-1.2l-5.5.4-.7-.2c-.5-.2-.8-.7-.8-1.3.1-1.1 1-1.8 2.9-2.3 7-1.6 13.5-4.2 19.6-7.7.8-.4 1.4-.6 1.9-.6 1 0 1.5.9 1.5 2.6v64.2zm0 10.3v27.7l-.1 3.4 1.2 6c1.7 3.7 4.7 6.9 9.1 9.5 4.4 2.6 8.8 3.9 13.4 3.9 7.5 0 13.4-2.7 17.9-8.2 4.4-5.4 6.7-12.7 6.7-21.8 0-9.3-2.9-17.7-8.8-24.9-5.9-7.3-12.6-10.9-20.2-10.9-6.1 0-11.4 2.3-16.1 6.9-2.1 1.8-3.1 4.7-3.1 8.4zm346 569.4v-57.7h5.9v22.4l.1.1c1.4-3.9 5.8-5.9 13.3-5.9 5.9 0 10 1.5 12.3 4.6 2.3 3.1 3.4 8.6 3.4 16.7 0 7.6-1.2 12.9-3.6 15.9-2.4 2.9-6.7 4.4-12.9 4.4-6.3 0-10.6-1.9-12.7-5.6h-.2l.3 5h-5.9zm17.8-36.1c-4.6 0-7.8 1-9.3 3-1.6 2-2.4 5.9-2.4 11.9 0 7.3.7 11.9 2.1 13.9 1.4 2 4.7 3 9.8 3 4.3 0 7.2-1 8.6-3.1s2.1-6.2 2.1-12.6c0-6.7-.7-11-2.1-13.1s-4.3-3-8.8-3zm43.1-4.9c7.5 0 12.3 1.3 14.5 3.9 2.2 2.6 3.3 8.2 3.3 16.9s-1.1 14.3-3.3 16.9c-2.2 2.6-7.1 3.9-14.5 3.9s-12.3-1.3-14.5-3.9c-2.2-2.6-3.3-8.2-3.3-16.9s1.1-14.3 3.3-16.9c2.3-2.6 7.1-3.9 14.5-3.9zm0 4.9c-5.2 0-8.5.9-9.7 2.6-1.3 1.7-1.9 6.1-1.9 13.3 0 7.2.6 11.6 1.9 13.3 1.3 1.7 4.5 2.6 9.7 2.6 5.3 0 8.5-.9 9.8-2.6 1.3-1.7 1.9-6.1 1.9-13.3 0-7.2-.6-11.6-1.9-13.3-1.2-1.7-4.5-2.6-9.8-2.6zm33.3 7h-5.9c0-4.7 1.1-7.9 3.2-9.5 2.1-1.6 6.3-2.4 12.5-2.4 6.7 0 11.3 1 13.6 3 2.4 2 3.5 5.8 3.5 11.3v26.7h-5.9l.5-4.4h-.1c-2.3 3.3-6.8 5-13.7 5-10.2 0-15.3-4.1-15.3-12.3 0-4.9 1.1-8.2 3.4-10.1s6.4-2.8 12.4-2.8c7.1 0 11.4 1.4 12.8 4.2h.1v-4.9c0-4.6-.6-7.6-1.9-9-1.3-1.4-4-2-8.3-2-7.3 0-10.9 2-10.9 6.1-.1.2 0 .6 0 1.1zm9.5 9.1c-4.5 0-7.5.5-8.9 1.4-1.4 1-2 3-2 6.2 0 3.3.7 5.4 2 6.5 1.4 1.1 4.1 1.6 8.2 1.6 8.3 0 12.5-2.5 12.5-7.6 0-3.2-.8-5.3-2.4-6.4-1.6-1.1-4.7-1.7-9.4-1.7zm49.8-20.4v4.9h-15.5v24.7c0 4.3 1.9 6.5 5.7 6.5 3.8 0 5.7-1.9 5.7-5.8v-2l.1-2.2h5.5v3c0 7.9-3.8 11.9-11.3 11.9-7.8 0-11.7-3.3-11.7-9.9v-26.1h-5.6v-4.9h5.6v-9.7h5.9v9.7h15.6z" fill="#F7F8F8"/><path d="M666.8 665.5H379.7l-115.3-173h517.7z" fill="#27444C"/><path d="M335.1 479.3l188.1-12.1-11.9-306.4zm197.1 0H692L555 200.5zm274 205.4c-1.3 0-2.6-.7-3.2-1.9-20.4-39.3-40.7-59.2-58.6-57.5-28.5 2.6-45.1 56.3-45.3 56.9-.4 1.4-1.7 2.4-3.1 2.5-1.5.1-2.9-.6-3.5-2-19.7-38.4-32.3-42.6-38.2-41.7-13.1 2-20.7 30.1-22.6 40.7-.2 1.5-1.4 2.6-2.8 2.9-1.4.3-2.9-.3-3.7-1.5-22.4-32.7-42.6-48-59.9-45.1-24.7 3.9-36.6 43.7-36.7 44.1-.4 1.4-1.7 2.5-3.1 2.6-1.6.1-2.9-.7-3.5-2-26.6-53.2-42.6-59-49.8-57.7-16 2.9-23.6 41.7-25.1 56.4-.2 1.6-1.4 2.9-2.9 3.2-1.6.3-3.1-.5-3.9-1.9-16-32-31.8-48.4-45.9-47.1-22.5 1.9-36.3 46.1-36.4 46.5-.4 1.4-1.6 2.4-3.1 2.5-1.4.2-2.8-.6-3.5-1.8-17.6-31.7-34.9-47.8-49.9-46.1-23.5 2.4-36.9 45-37.1 45.4-.6 1.9-2.6 3-4.5 2.4-1.9-.6-3-2.6-2.4-4.5.6-1.9 15-47.5 43.2-50.5 17.2-1.8 34.9 12.7 53 42.9 5.4-13.9 19-42.3 40-44.1 15.7-1.3 31.8 12.5 47.7 41.2 3.1-17.4 11.1-48.4 29.4-51.7 15.6-2.9 33.1 14.9 53.7 54.1 5.2-13.1 17.9-37.6 39.7-41.1 19.1-3.1 40 10.9 62.3 41.4 3.3-12.9 11.2-36.1 26.8-38.4 12.9-1.9 26.6 10.6 41.8 38.2 6.2-16.2 22.7-51.6 48.8-54 21.4-1.9 43.4 18.7 65.7 61.3.9 1.8.2 3.9-1.5 4.9-.8.4-1.4.5-1.9.5z" fill="#EDEDCC"/></svg>