<?xml version="1.0" standalone="no"?><!DOCTYPE svg PUBLIC "-//W3C//DTD SVG 1.1//EN" "http://www.w3.org/Graphics/SVG/1.1/DTD/svg11.dtd"><svg t="1504342660753" class="icon" style="" viewBox="0 0 1024 1024" version="1.1" xmlns="http://www.w3.org/2000/svg" p-id="2209" xmlns:xlink="http://www.w3.org/1999/xlink" width="64" height="64"><defs><style type="text/css"></style></defs><path d="M512.6 512m-501 0a501 501 0 1 0 1002 0 501 501 0 1 0-1002 0Z" fill="#9E1515" p-id="2210"></path><path d="M510.1 475.7m-205.7 0a205.7 205.7 0 1 0 411.4 0 205.7 205.7 0 1 0-411.4 0Z" fill="#3FB2A4" p-id="2211"></path><path d="M504.4 357.1m-16.9 0a16.9 16.9 0 1 0 33.8 0 16.9 16.9 0 1 0-33.8 0Z" fill="#9E1515" p-id="2212"></path><path d="M408.5 416.4m-16.9 0a16.9 16.9 0 1 0 33.8 0 16.9 16.9 0 1 0-33.8 0Z" fill="#9E1515" p-id="2213"></path><path d="M374.6 504.8m-16.9 0a16.9 16.9 0 1 0 33.8 0 16.9 16.9 0 1 0-33.8 0Z" fill="#9E1515" p-id="2214"></path><path d="M557.3 416.4m-16.9 0a16.9 16.9 0 1 0 33.8 0 16.9 16.9 0 1 0-33.8 0Z" fill="#9E1515" p-id="2215"></path><path d="M487.5 504.8m-16.9 0a16.9 16.9 0 1 0 33.8 0 16.9 16.9 0 1 0-33.8 0Z" fill="#9E1515" p-id="2216"></path><path d="M611.8 525.4m-16.9 0a16.9 16.9 0 1 0 33.8 0 16.9 16.9 0 1 0-33.8 0Z" fill="#9E1515" p-id="2217"></path><path d="M628.7 467.3m-16.9 0a16.9 16.9 0 1 0 33.8 0 16.9 16.9 0 1 0-33.8 0Z" fill="#9E1515" p-id="2218"></path><path d="M510.1 884.8c-4 0-7.3-3.3-7.3-7.3V645.2c0-4 3.3-7.3 7.3-7.3s7.3 3.3 7.3 7.3v232.4c0 3.9-3.3 7.2-7.3 7.2z" fill="#2D4655" p-id="2219"></path><path d="M559.3 892.1h-98.5c-8 0-14.5-6.5-14.5-14.5s6.5-14.5 14.5-14.5h98.5c8 0 14.5 6.5 14.5 14.5s-6.4 14.5-14.5 14.5zM510.1 648.8c-0.8 0-1.6-0.3-2.2-0.8l-84.7-66.6c-1.6-1.2-1.9-3.5-0.6-5.1 1.2-1.6 3.5-1.9 5.1-0.6l84.7 66.6c1.6 1.2 1.9 3.5 0.6 5.1-0.7 0.9-1.8 1.4-2.9 1.4z" fill="#2D4655" p-id="2220"></path><path d="M408.5 618c-1.8 0-3.4-1.4-3.6-3.2-0.2-2 1.2-3.8 3.2-4l51.4-5.7-2.2-43.3c-0.1-2 1.4-3.7 3.4-3.8 2-0.1 3.7 1.4 3.8 3.4l2.4 46.7c0.1 1.9-1.3 3.6-3.2 3.8l-54.8 6c-0.2 0.1-0.3 0.1-0.4 0.1zM487.5 631c-0.8 0-1.6-0.3-2.3-0.8-1.6-1.3-1.8-3.5-0.6-5.1l46.8-58.2c1.3-1.6 3.5-1.8 5.1-0.6 1.6 1.3 1.8 3.5 0.6 5.1l-46.8 58.2c-0.7 1-1.7 1.4-2.8 1.4z" fill="#2D4655" p-id="2221"></path><path d="M527.7 581.1c-0.4 0-0.9-0.1-1.3-0.2L499 570.4c-1.9-0.7-2.8-2.8-2.1-4.7 0.7-1.9 2.8-2.8 4.7-2.1l27.4 10.5c1.9 0.7 2.8 2.8 2.1 4.7-0.6 1.4-2 2.3-3.4 2.3zM510.1 648.8c-1 0-2-0.4-2.7-1.2-1.3-1.5-1.2-3.8 0.3-5.1l62.9-56V567c0-2 1.6-3.6 3.6-3.6s3.6 1.6 3.6 3.6v21c0 1-0.4 2-1.2 2.7l-64.1 57.1c-0.7 0.7-1.5 1-2.4 1z" fill="#2D4655" p-id="2222"></path><path d="M574.3 591.7c-1.4 0-2.7-0.8-3.3-2.1-0.8-1.8 0-4 1.8-4.8l20.6-9.4c1.8-0.8 4 0 4.8 1.8 0.8 1.8 0 4-1.8 4.8l-20.6 9.4c-0.5 0.2-1 0.3-1.5 0.3z" fill="#2D4655" p-id="2223"></path><path d="M283.5 285.6c-5.2 2.5-12.4 4.2-21.5 5-3.8-16.7-6.2-33.9-7-51.7-2.4 0.2-6.3 0.3-11.6 0.3-9.1 0-16.9-0.5-23.5-1.6-3.1 16.1-7.5 28.4-13.3 37-5.8 8.6-12.6 12.8-20.5 12.8-3.9 0-7.4-1.9-10.5-5.6-3.1-3.7-4.6-7.7-4.6-11.9 0-3.4 1.4-7.1 4.1-11.1 2.7-4 5.7-6 8.8-6 1.7 0 3.3 0.9 5 2.7 1.7 1.8 2.5 3.6 2.5 5.3 0 2-0.6 4.1-1.8 6.2-1.2 2.1-2.6 3.2-4.3 3.2-0.2 0-0.7-0.2-1.3-0.5 1.7-1.3 2.5-2.8 2.5-4.7 0-1.2-0.4-2.4-1.3-3.6-0.9-1.2-1.8-1.8-2.9-1.8-5.4 0-8 2.4-8 7.2 0 4.4 1.2 7.6 3.6 9.7s6.5 3.1 12.2 3.1c8.2 0 13.8-4.8 17-14.3 3.2-9.6 4.8-19.5 4.8-29.7-19.2-4.3-28.8-10.9-28.8-19.7 0-2.5 0.8-4.8 2.4-6.8 1.6-2.1 3.5-3.1 5.7-3.1h1.8c-2 2.4-3 5.1-3 8.2 0 4.3 1.9 8.1 5.8 11.3 3.9 3.2 9.2 5.6 15.9 7.1-0.3-4.4-0.5-8.8-0.5-13.2 0-8.8 1.1-16.1 3.3-21.8 2.2-5.7 6-10.8 11.2-15.3 5.3-4.5 11.2-7.8 17.7-10 6.6-2.2 13.3-3.3 20.1-3.3 4.1 0 6.5 0.1 7.2 0.2-5 23.4-7.8 44.2-8.4 62.3 1-0.2 2.6-0.7 4.7-1.5l0.3 7.5c-2.5 0.2-4.1 0.4-5.1 0.5v6.2c0 18.2 1.1 31.9 3.3 41.2 4.2-0.1 9.8-1.6 16.8-4.4l1.2 4.6z m-25.8-112.3c-9.8-0.3-17.8 2.9-24.1 9.8-6.3 6.8-10.4 21.2-12.2 43-0.3 3.8-0.6 6.6-0.9 8.2 4.7 0.5 8.5 0.8 11.2 0.8 6.1 0 13.7-0.7 22.9-2-0.3-6.8-0.4-12.1-0.4-15.9 0-15.6 1.2-30.2 3.5-43.9zM337.4 248.7v-10.9c0-6.7-1.3-11.4-3.8-14-3.4-3.5-8-5.3-13.8-5.3-7.8 0-11.7 3.3-11.7 9.8 0 1.9 0.4 4.2 1.1 6.7 0.4 1.1 0.6 2 0.6 2.8 0.1 1.1-0.5 1.6-1.8 1.6-2.8 0-5.3-0.6-7.5-1.8-2.3-1.2-3.4-2.5-3.4-3.9 0-3.6 2-7.6 5.9-11.8 5.3-5.7 12.4-8.5 21.1-8.5 8 0 14.2 1.8 18.7 5.3 4.4 3.6 6.6 8.6 6.6 15.1v34.6c0 5.5 0.7 9.4 2 11.7 1.3 2.3 3.6 3.5 6.7 3.5 0.9 0 1.6 0 2.1-0.2 1.1-0.3 1.8-0.4 2.1-0.4 1-0.1 1.5 0.4 1.4 1.2-0.1 1.1-1.5 2.1-4.2 3.2s-5.4 1.6-8 1.6c-4.9 0-9.2-3-13.1-9-8.5 6.5-16.5 9.7-23.8 9.7-5.5 0-9.9-1.5-13.2-4.5-3.3-3-4.9-7-4.9-12 0-6.8 3.1-12 9.3-15.8 6.5-3.5 16.9-6.5 31.6-8.7z m0 3.5c-9.1 0.8-16.2 2.9-21.2 6.2-5 3.3-7.5 7.6-7.5 12.7 0 4 1.2 7.3 3.6 9.6 2.4 2.4 5.6 3.6 9.6 3.6 4.9 0 9.1-1.6 12.4-4.8 2.1-2.1 3.1-5.3 3.1-9.8v-17.5z" fill="#F7F8F8" p-id="2224"></path><path d="M670.6 779.2h-5.9c0-4.7 1.1-7.9 3.2-9.6 2.1-1.6 6.3-2.4 12.6-2.4 6.8 0 11.4 1 13.7 3s3.6 5.8 3.6 11.4v26.8h-6l0.5-4.4h-0.1c-2.3 3.3-6.9 5-13.8 5-10.3 0-15.4-4.1-15.4-12.4 0-4.9 1.1-8.3 3.4-10.2 2.3-1.9 6.5-2.8 12.5-2.8 7.1 0 11.4 1.4 12.8 4.2h0.1v-4.9c0-4.7-0.6-7.7-1.9-9-1.3-1.4-4.1-2.1-8.4-2.1-7.3 0-11 2.1-11 6.2 0.1 0.2 0.1 0.6 0.1 1.2z m9.6 9.2c-4.6 0-7.5 0.5-8.9 1.4-1.4 1-2.1 3-2.1 6.2 0 3.3 0.7 5.5 2 6.5 1.4 1.1 4.1 1.6 8.3 1.6 8.4 0 12.6-2.6 12.6-7.7 0-3.2-0.8-5.4-2.4-6.5s-4.8-1.5-9.5-1.5zM709.4 767.8h6l-0.6 4.7 0.1 0.1c2.4-3.8 6.2-5.7 11.7-5.7 7.5 0 11.2 3.9 11.2 11.6v2.8h-5.9l0.1-1c0.1-1.1 0.1-1.8 0.1-2.2 0-4.2-2.3-6.3-6.8-6.3-6.6 0-10 4.1-10 12.3v24.4h-6v-40.7zM743.6 808.5v-58.1h6V773l0.1 0.1c1.4-3.9 5.8-5.9 13.4-5.9 6 0 10.1 1.5 12.3 4.6 2.3 3.1 3.4 8.7 3.4 16.8 0 7.7-1.2 13-3.6 16-2.4 3-6.7 4.4-13 4.4-6.4 0-10.6-1.9-12.8-5.7h-0.2l0.3 5h-5.9z m17.9-36.4c-4.7 0-7.8 1-9.4 3-1.6 2-2.4 6-2.4 11.9 0 7.3 0.7 12 2.1 14 1.4 2 4.7 3 9.9 3 4.4 0 7.3-1 8.7-3.1 1.4-2.1 2.1-6.3 2.1-12.7 0-6.7-0.7-11.1-2.1-13.2-1.4-1.8-4.4-2.9-8.9-2.9zM788.7 767.8h6l-0.6 4.7 0.1 0.1c2.4-3.8 6.2-5.7 11.7-5.7 7.5 0 11.2 3.9 11.2 11.6v2.8h-5.9l0.1-1c0.1-1.1 0.1-1.8 0.1-2.2 0-4.2-2.3-6.3-6.8-6.3-6.6 0-10 4.1-10 12.3v24.4h-6v-40.7zM851.1 796.2h6.1v1.5c0 4.2-1.3 7.2-3.9 8.9-2.6 1.7-7.1 2.5-13.5 2.5-7.5 0-12.4-1.4-14.7-4.1-2.3-2.7-3.5-8.5-3.5-17.3 0-8.1 1.2-13.6 3.5-16.3 2.4-2.8 7-4.2 13.8-4.2 7.5 0 12.4 1.2 14.7 3.6 2.3 2.4 3.5 7.5 3.5 15.2v3.2h-29.3c0 6.4 0.7 10.5 2.1 12.3 1.4 1.8 4.6 2.6 9.6 2.6 4.8 0 7.9-0.4 9.3-1.3 1.4-0.8 2.1-2.6 2.1-5.4v-1.2z m0-11.6v-1.9c0-4.4-0.7-7.3-2.2-8.6-1.4-1.3-4.6-2-9.4-2-4.8 0-7.9 0.8-9.4 2.3-1.4 1.5-2.1 4.9-2.1 10.1h23.1z" fill="#F7F8F8" p-id="2225"></path></svg>