<?xml version="1.0" standalone="no"?><!DOCTYPE svg PUBLIC "-//W3C//DTD SVG 1.1//EN" "http://www.w3.org/Graphics/SVG/1.1/DTD/svg11.dtd"><svg t="1504342721141" class="icon" style="" viewBox="0 0 1024 1024" version="1.1" xmlns="http://www.w3.org/2000/svg" p-id="2727" xmlns:xlink="http://www.w3.org/1999/xlink" width="64" height="64"><defs><style type="text/css"></style></defs><path d="M513.1 513.6m-498.6 0a498.6 498.6 0 1 0 997.2 0 498.6 498.6 0 1 0-997.2 0Z" fill="#27444C" p-id="2728"></path><path d="M263 257.2c-0.6 12.2-4 21.6-10.2 28.3-6.2 6.7-14.7 10.1-25.4 10.1-11.8 0-22.9-5.7-33.2-17.1-10.3-11.4-15.4-24-15.4-37.7 0-8.5 2.3-18.1 6.9-28.8 4.6-10.7 10.8-19.2 18.5-25.7 7.7-6.4 16.2-9.7 25.5-9.7 8.6 0 15.5 2.3 20.7 6.8 5.2 4.5 7.8 9.5 7.8 15 0 5.3-2.5 10.1-7.4 14.3-4.9 4.3-10.2 6.4-16 6.4-3.4 0-6.8-1.3-10.3-4-3.4-2.7-5.2-6-5.2-9.9 0-3.8 1.2-6.6 3.5-8.6s5.2-3 8.6-3c2.6 0 4.8 0.8 6.8 2.4s2.9 3.3 2.9 4.9c0 2.7-0.6 4.9-1.7 6.6-1.2 1.7-2.5 2.6-4.1 2.6-1.8 0-3.1-0.9-3.8-2.6 1.1 0 2.5-0.5 4-1.6s2.3-2.1 2.3-3.1c0-3.6-1.1-5.5-3.2-5.5-2.6 0-4.9 1-7.2 3.1-2.2 2-3.3 4.5-3.3 7.2 0 1.9 1.1 4 3.3 6.1 2.2 2.1 4.7 3.2 7.5 3.2 3.9 0 7.2-1.9 9.9-5.7 2.7-3.8 4.1-8.1 4.1-12.8 0-4.8-1.7-9.1-5.1-12.9s-8-5.8-13.7-5.8c-11.9 0-21.5 5.2-28.5 15.6-7.1 10.4-10.6 23.1-10.6 38.1 0 16.4 4 30.2 12.1 41.3 8.1 11.1 17.9 16.7 29.5 16.7 7 0 12.4-2.1 16.1-6.4 3.7-4.3 5.5-9.9 5.5-16.7 0-2.5-0.2-6.4-0.7-11.7l9.5 0.6zM335.9 216.4c5 0 9.6 0.6 13.5 1.9 4 1.3 5.9 2.7 5.9 4.3l-0.1 2.6 0.6 6.7c0 3.1-0.7 4.7-2.2 4.8-0.7 0.1-1.5-0.8-2.5-2.6-1.9-3.4-5-6.3-9.4-8.7s-8.7-3.7-12.9-3.7c-5.7 0-10.4 2.6-14.1 7.9-3.6 5.2-5.4 12-5.4 20.3 0 9.8 2.8 18.1 8.4 24.8 5.6 6.8 12.4 10.2 20.5 10.2 6.5 0 12.9-2.7 19.2-8 0.8-0.6 1.5-1 2.2-1.1 0.9-0.1 1.4 0.3 1.4 1.2 0 1.3-1.4 3.2-4.2 5.7-7.3 6.5-16 9.8-26.2 9.8-9.4 0-17.2-3.4-23.6-10.2-6.3-6.8-9.5-15.3-9.5-25.4 0-11.3 3.7-20.8 11.2-28.7 7.5-7.8 16.6-11.8 27.2-11.8zM510.7 794h5.9v2.2c0 8.7-5.7 13-17 13-7.3 0-12.1-1.4-14.4-4.1s-3.5-8.4-3.5-16.9c0-8 1.2-13.5 3.6-16.3 2.4-2.9 6.9-4.3 13.6-4.3 6.6 0 11.1 1 13.5 2.9 2.4 1.9 3.6 5.6 3.6 10.9h-6v-1.1c0-3.1-0.8-5.2-2.3-6.3-1.6-1-4.6-1.6-9.3-1.6-4.5 0-7.3 1-8.6 3s-1.9 6.4-1.9 13.3c0 6.7 0.7 11 2.2 12.8 1.5 1.8 4.8 2.8 10.2 2.8 4.5 0 7.4-0.6 8.6-1.8 1.2-1.2 1.8-4.1 1.8-8.5zM530.8 750.8v22.3l0.1 0.1c1.5-3.8 5.7-5.7 12.5-5.7 10.2 0 15.2 4.5 15.2 13.5V808.6h-5.9v-27c0-6.1-3.1-9.1-9.4-9.1-5 0-8.4 0.9-10.1 2.7-1.7 1.8-2.5 5.4-2.5 10.7v22.8h-5.9v-57.8h6zM575.6 779.5h-5.9c0-4.7 1.1-7.9 3.2-9.5 2.1-1.6 6.3-2.4 12.5-2.4 6.7 0 11.3 1 13.7 3 2.4 2 3.6 5.8 3.6 11.4v26.7h-5.9l0.5-4.4h-0.1c-2.3 3.3-6.8 5-13.8 5-10.2 0-15.3-4.1-15.3-12.3 0-4.9 1.1-8.3 3.4-10.1 2.3-1.9 6.4-2.8 12.4-2.8 7.1 0 11.4 1.4 12.8 4.2h0.1v-4.9c0-4.6-0.6-7.6-1.9-9-1.3-1.4-4.1-2.1-8.3-2.1-7.3 0-10.9 2-10.9 6.1-0.1 0.1-0.1 0.5-0.1 1.1z m9.6 9.1c-4.5 0-7.5 0.5-8.9 1.4-1.4 1-2.1 3-2.1 6.2 0 3.3 0.7 5.4 2 6.5 1.4 1.1 4.1 1.6 8.3 1.6 8.4 0 12.5-2.5 12.5-7.6 0-3.2-0.8-5.3-2.4-6.4s-4.7-1.7-9.4-1.7zM613.7 768.1h5.9l-0.3 5.1 0.2 0.1c2.1-3.9 6.5-5.8 13.3-5.8 6 0 10.1 1.5 12.4 4.6 2.3 3 3.4 8.7 3.4 16.9 0 7.6-1.1 12.9-3.4 15.8s-6.4 4.4-12.2 4.4c-6.7 0-11.1-1.8-13.2-5.4h-0.1v22.1h-5.9v-57.8z m17.4 4.3c-4.7 0-7.8 1-9.3 3.1-1.4 2-2.2 6.4-2.2 13.2 0 6.2 0.8 10.4 2.3 12.5 1.6 2.1 4.7 3.1 9.4 3.1 4.5 0 7.4-1 8.8-3 1.4-2 2.1-6.1 2.1-12.4 0-6.9-0.7-11.3-2.1-13.4-1.2-2.1-4.3-3.1-9-3.1zM686.1 796.4h6.1v1.5c0 4.2-1.3 7.1-3.8 8.8-2.6 1.7-7 2.5-13.4 2.5-7.5 0-12.3-1.4-14.7-4.1-2.3-2.7-3.5-8.4-3.5-17.2 0-8.1 1.2-13.5 3.5-16.3 2.3-2.8 6.9-4.1 13.8-4.1 7.5 0 12.3 1.2 14.6 3.6 2.3 2.4 3.5 7.5 3.5 15.2v3.2H663c0 6.4 0.7 10.4 2.1 12.2 1.4 1.8 4.6 2.6 9.6 2.6 4.8 0 7.9-0.4 9.3-1.2 1.4-0.8 2.1-2.6 2.1-5.4v-1.3z m0-11.6v-1.9c0-4.4-0.7-7.2-2.2-8.5s-4.5-2-9.3-2c-4.8 0-7.9 0.8-9.3 2.3-1.4 1.5-2.1 4.9-2.1 10.1h22.9zM707.7 779.5h-5.9c0-4.7 1.1-7.9 3.2-9.5 2.1-1.6 6.3-2.4 12.5-2.4 6.7 0 11.3 1 13.7 3 2.4 2 3.6 5.8 3.6 11.4v26.7h-5.9l0.5-4.4h-0.1c-2.3 3.3-6.8 5-13.8 5-10.2 0-15.3-4.1-15.3-12.3 0-4.9 1.1-8.3 3.4-10.1 2.3-1.9 6.4-2.8 12.4-2.8 7.1 0 11.4 1.4 12.8 4.2h0.1v-4.9c0-4.6-0.6-7.6-1.9-9-1.3-1.4-4.1-2.1-8.3-2.1-7.3 0-10.9 2-10.9 6.1-0.2 0.1-0.2 0.5-0.1 1.1z m9.5 9.1c-4.5 0-7.5 0.5-8.9 1.4-1.4 1-2.1 3-2.1 6.2 0 3.3 0.7 5.4 2 6.5 1.4 1.1 4.1 1.6 8.3 1.6 8.4 0 12.5-2.5 12.5-7.6 0-3.2-0.8-5.3-2.4-6.4s-4.7-1.7-9.4-1.7zM778.7 768.1v40.5h-5.9l0.4-5.3-0.1-0.1c-2.1 4-6.5 6-13.2 6-9.5 0-14.2-4.7-14.2-14.1v-26.9h5.9V795c0 3.7 0.6 6.1 1.8 7.4 1.2 1.2 3.6 1.9 7.2 1.9 4.7 0 7.9-0.9 9.6-2.8 1.7-1.8 2.6-5.2 2.6-10.2v-23.2h5.9z" fill="#F7F8F8" p-id="2729"></path><path d="M367.9 552.1a163.7 159 0 1 0 327.4 0 163.7 159 0 1 0-327.4 0Z" fill="#EDEDCC" p-id="2730"></path><path d="M541 594.7c-0.2 0-0.4-0.1-0.4-0.3-0.1-0.2 0-0.5 0.2-0.7l16.1-8.2-11.8-33.3c-0.1-0.3 0-0.5 0.3-0.6 0.3-0.1 0.5 0 0.6 0.3l11.9 33.7c0.1 0.2 0 0.5-0.2 0.6l-16.4 8.4c-0.1 0.1-0.2 0.1-0.3 0.1z" fill="#27444C" p-id="2731"></path><path d="M818.2 544.6s-26.8-9.8-40.2-16.9c-16.3-8.7-34.5-20-34.5-27.4v-57.8c0-114.6-93.7-215.5-208.3-215.5-114.6 0-208.3 101-208.3 215.5v57.8c0 13.5-1.1 13.8 1.3 26.6l-29 39.5-38.5 27.8 557.5-49.6z" fill="#9E1515" p-id="2732"></path><path d="M841.2 499.7L251 544.6l-1.1-13.5 590.2-44.9z" fill="#27444C" p-id="2733"></path><path d="M549.9 649.3c-6.7 0-12.7-1.1-17.7-2.5-16-4.5-26.5-13.6-26.6-13.7-0.2-0.2-0.2-0.5 0-0.7 0.2-0.2 0.5-0.2 0.7 0 0.1 0.1 10.5 9 26.3 13.5 14.5 4.1 36.7 5.1 59.8-13.5 0.2-0.2 0.5-0.1 0.7 0.1 0.2 0.2 0.1 0.5-0.1 0.7-15.5 12.3-30.4 16.1-43.1 16.1z" fill="#27444C" p-id="2734"></path></svg>