<?xml version="1.0" standalone="no"?><!DOCTYPE svg PUBLIC "-//W3C//DTD SVG 1.1//EN" "http://www.w3.org/Graphics/SVG/1.1/DTD/svg11.dtd"><svg t="1504342743749" class="icon" style="" viewBox="0 0 1024 1024" version="1.1" xmlns="http://www.w3.org/2000/svg" p-id="3014" xmlns:xlink="http://www.w3.org/1999/xlink" width="64" height="64"><defs><style type="text/css"></style></defs><path d="M512.9 511.9m-497 0a497 497 0 1 0 994 0 497 497 0 1 0-994 0Z" fill="#3FB2A4" p-id="3015"></path><path d="M517.5 367.3s8.4-97.9 40.6-113.4l42.1 6.6s-66.7 93.7-82.7 123.1v-16.3z" fill="#27444C" p-id="3016"></path><path d="M181.3 198.8c11.7 0 21.4 3.4 29.2 10.1 7.8 6.7 11.7 14.7 11.7 23.8 0 11.3-3.1 21.1-9.3 29.2s-13.3 12.2-21.2 12.2c-2.5 0-4.8-1.2-6.8-3.6-2-2.4-3-5.1-3-8 0-1.8 1.3-3.6 4-5.2 2.7-1.7 5-2.5 7.1-2.5 2.2 0 3.3 1.7 3.3 5.1 0 1-0.9 2.3-2.7 4.1-0.2-0.3-0.7-1.3-1.5-2.9-0.8-1.6-1.7-2.4-2.7-2.4-2.2 0-3.3 2-3.3 6.1 0 2 0.7 3.7 2 5 1.3 1.3 3 1.9 4.9 1.9 5.1 0 9.6-3.2 13.5-9.7 3.9-6.5 5.8-14.1 5.8-22.8 0-10.3-2.6-18.8-7.8-25.5-5.2-6.7-13-10.3-23.4-10.9-1 12.3-1.5 31.5-1.5 57.4 0 6.7 0.6 16 1.8 27.7 1.2 11.7 1.8 19.9 2 24.7l18.2 1.8-1 5c-5.3-1.1-12.5-1.9-21.4-2.6-8.9-0.7-15.9-0.9-20.9-0.7l-0.4-5c4.3-0.1 8.8 0.1 13.5 0.6 4.7 0.5 7.5 0.6 8.3 0.4-0.3-5-1.1-13-2.4-23.8-3.1-25.1-4.6-47.2-4.6-66 0-10.5 0.1-17 0.3-19.6-7.4 0.3-13.8 2.3-19.3 5.9-5.5 3.6-8.2 8.1-8.2 13.3 0 2.5 0.9 4.5 2.8 6s4 2.3 6.5 2.3c6 0 9-1.3 9-3.8 0-0.7-0.3-1.3-0.9-1.7-0.6-0.5-1.3-0.7-2-0.7-1.6 0-2.5 1-2.5 3.1-1.5-0.3-2.2-1.3-2.2-3.1 0-2.7 1.4-4.1 4.2-4.1 1.3 0 2.6 0.6 3.8 1.8s1.8 2.4 1.8 3.6c0 2.9-1.1 5.4-3.4 7.4s-5.1 3.1-8.4 3.1c-3.5 0-6.6-1.2-9.1-3.7s-3.8-5.5-3.8-9c0-4.5 2.3-9.2 6.8-13.9 4.5-4.7 12.9-8.1 25-10 0-2.3 0-8 0.1-17.2 6.5 0.6 10.2 0.9 11.1 0.9-2 8.8-3 14.1-3 15.9zM258.7 254.2c7.4-8.7 14.8-13 22.2-13 7.5 0 13.8 3.3 18.9 9.9 5.1 6.6 7.6 14.8 7.6 24.7 0 11.4-3.1 21.1-9.2 29.2-6.1 8.1-13.5 12.1-22.2 12.1-4.9 0-10.6-1.7-17.2-5.2v17.6c0 6.4 0.8 10.7 2.3 12.9 1.6 2.1 4.6 3.2 9.3 3.2 1.6 0 2.3 0.6 2.3 1.9 0 1-0.7 1.5-2.1 1.5l-3.8-0.1-7.2-0.2h-7.9l-3.2 0.1-2.9 0.2-3.5 0.1-1-0.2c-0.5-0.2-0.7-0.7-0.7-1.4 0-1 0.7-1.6 2-1.9 2.3-0.5 3.9-1.8 4.8-3.7s1.3-5.2 1.3-9.7l-0.1-3.3v-65.5l-0.2-3.7c0-3.3-0.6-5.6-1.7-6.9-1.1-1.3-3.2-1.9-6.2-1.9H239c-0.5 0-0.8-0.1-1.1-0.2-0.4-0.2-0.5-0.6-0.5-1.2 0-1 0.6-1.6 1.9-2 8.4-2.6 14.1-5.4 17.3-8.4 0.6-0.6 1.1-0.9 1.4-0.9 0.8 0 1.2 0.8 1.2 2.5l-0.1 1.7-0.4 11.8z m0 9.3v29.9c0 5.7 1.8 10.3 5.3 13.7 3.5 3.4 8.2 5.2 14 5.2 6.4 0 11.5-2.5 15.2-7.5 3.7-5 5.5-11.9 5.5-20.6 0-10.3-2.2-18.8-6.5-25.3s-9.9-9.8-16.7-9.8c-4.6 0-8.5 1.4-11.8 4.3-3.3 2.8-5 6.1-5 10.1zM605.4 784h5.9l-0.3 5.1 0.2 0.1c2.1-3.9 6.5-5.8 13.3-5.8 6 0 10.1 1.5 12.4 4.6 2.3 3 3.4 8.6 3.4 16.8 0 7.6-1.1 12.8-3.4 15.8-2.3 2.9-6.3 4.4-12.2 4.4-6.6 0-11-1.8-13.2-5.4h-0.1v22.1h-5.9V784z m17.4 4.3c-4.7 0-7.8 1-9.2 3.1-1.4 2-2.2 6.4-2.2 13.1 0 6.2 0.8 10.4 2.3 12.4 1.5 2.1 4.7 3.1 9.3 3.1 4.4 0 7.4-1 8.8-3s2.1-6.1 2.1-12.4c0-6.9-0.7-11.3-2.1-13.3-1.3-2-4.3-3-9-3zM666.2 783.4c7.5 0 12.3 1.3 14.5 3.9 2.2 2.6 3.3 8.2 3.3 16.9s-1.1 14.3-3.3 16.9c-2.2 2.6-7.1 3.9-14.5 3.9s-12.3-1.3-14.5-3.9-3.3-8.2-3.3-16.9 1.1-14.3 3.3-16.9c2.2-2.6 7-3.9 14.5-3.9z m0 4.9c-5.2 0-8.5 0.9-9.7 2.6s-1.9 6.1-1.9 13.3 0.6 11.6 1.9 13.3c1.3 1.7 4.5 2.6 9.7 2.6 5.3 0 8.5-0.9 9.8-2.6 1.3-1.7 1.9-6.1 1.9-13.3s-0.6-11.6-1.9-13.3-4.6-2.6-9.8-2.6zM693.2 784h5.9l-0.1 6 0.1 0.1c2.3-4.5 6.7-6.8 13.2-6.8 6.8 0 11 2.3 12.5 6.8h0.2c2.5-4.5 7.2-6.8 13.9-6.8 9.5 0 14.3 4.9 14.3 14.6v26.4h-5.9v-26.9c0-3.5-0.6-6-1.9-7.2-1.3-1.3-3.7-1.9-7.2-1.9-4.7 0-7.8 0.9-9.5 2.6s-2.5 5.1-2.5 10.1v23.3h-5.9v-26.4l-0.1-1.9c0-5.2-3-7.8-8.9-7.8-8 0-12.1 4.4-12.1 13.1v22.9h-5.9V784zM764.6 784h5.9l-0.1 6.1 0.1 0.1c2.3-4.5 6.7-6.8 13.2-6.8 6.8 0 11 2.3 12.5 6.8h0.2c2.5-4.5 7.2-6.8 13.9-6.8 9.5 0 14.3 4.9 14.3 14.6v26.4h-5.9v-26.9c0-3.5-0.6-6-1.9-7.2-1.3-1.3-3.7-1.9-7.2-1.9-4.7 0-7.8 0.9-9.5 2.6s-2.5 5.1-2.5 10.1v23.3h-5.9V798l-0.1-1.9c0-5.2-3-7.8-8.9-7.8-8 0-12.1 4.4-12.1 13.1v22.9h-5.9V784zM864 812.1h6v1.5c0 4.2-1.3 7.1-3.8 8.8-2.5 1.7-7 2.5-13.4 2.5-7.4 0-12.3-1.4-14.6-4.1-2.3-2.7-3.5-8.4-3.5-17.1 0-8 1.2-13.5 3.5-16.2 2.3-2.8 6.9-4.1 13.7-4.1 7.4 0 12.3 1.2 14.6 3.6 2.3 2.4 3.5 7.4 3.5 15.1v3.2h-29c0 6.4 0.7 10.4 2 12.2s4.6 2.6 9.6 2.6c4.8 0 7.8-0.4 9.3-1.2 1.4-0.8 2.1-2.6 2.1-5.4v-1.4z m0-11.5v-1.9c0-4.4-0.7-7.2-2.2-8.5-1.4-1.3-4.5-2-9.3-2-4.8 0-7.9 0.8-9.3 2.3-1.4 1.5-2.1 4.9-2.1 10.1H864z" fill="#F7F8F8" p-id="3017"></path><path d="M806.5 546c-16.2 141.5-127.6 243.5-284.9 243.5s-270.8-98-284.9-243.5c-9.2-94.5 0-210.2 139.4-231.4 95.2-14.5 145.6 52.5 145.6 52.5s80.8-66.4 153.2-48.2c115.4 29 142 135.6 131.6 227.1z" fill="#9E1515" p-id="3018"></path><path d="M776.2 546.5c-14.5 126.5-114 217.7-254.7 217.7s-242.1-87.6-254.7-217.7c-8.2-84.5 0-187.9 124.6-206.9 85.1-12.9 130.1 46.9 130.1 46.9s72.2-59.4 137-43.1c103.3 26.1 127.1 121.4 117.7 203.1z" fill="#EDEDCC" p-id="3019"></path><path d="M517.5 383.7h7.7v380.5h-7.7z" fill="#27444C" p-id="3020"></path><path d="M447.2 466.6c0.7-5 9.1-5.3 18.4-3.9 9.4 1.4 24.3 5.1 23.5 10.1-0.7 5-16.9 6.7-26.3 5.4-9.3-1.5-16.4-6.6-15.6-11.6zM447.1 496.4c0.6-5 8.9-5.6 18.3-4.4s24.4 4.4 23.8 9.4-16.7 7.2-26.2 6.1c-9.4-1.1-16.5-6.1-15.9-11.1z" fill="#27444C" p-id="3021"></path><path d="M585.9 466.6c-0.7-5-9.1-5.3-18.4-3.9-9.4 1.4-24.3 5.1-23.5 10.1s16.9 6.7 26.3 5.4c9.3-1.5 16.3-6.6 15.6-11.6zM586 496.4c-0.6-5-8.9-5.6-18.3-4.4-9.4 1.1-24.4 4.4-23.8 9.4s16.7 7.2 26.2 6.1c9.4-1.1 16.5-6.1 15.9-11.1z" fill="#27444C" p-id="3022"></path></svg>