<?xml version="1.0" standalone="no"?><!DOCTYPE svg PUBLIC "-//W3C//DTD SVG 1.1//EN" "http://www.w3.org/Graphics/SVG/1.1/DTD/svg11.dtd"><svg t="1504342734442" class="icon" style="" viewBox="0 0 1024 1024" version="1.1" xmlns="http://www.w3.org/2000/svg" p-id="2868" xmlns:xlink="http://www.w3.org/1999/xlink" width="64" height="64"><defs><style type="text/css"></style></defs><path d="M514.1 510.6m-487.1 0a487.1 487.1 0 1 0 974.2 0 487.1 487.1 0 1 0-974.2 0Z" fill="#3FB2A4" p-id="2869"></path><path d="M196.2 309.6c3-5 5.6-12 8-20.9 2.4-8.9 3.7-17.2 3.8-24.6 0.3-17.3 1.3-28.8 3.2-34.7s4.7-10.8 8.7-14.6c4-3.9 8.6-5.8 13.9-5.8 4.1 0 7.5 1.3 10.1 4 2.6 2.7 4 6.2 4 10.4 0 2.6-1.4 5.2-4.1 7.9-2.7 2.7-5.5 4-8.2 4-1.5 0-3-0.6-4.7-1.8-1.6-1.2-2.5-2.4-2.5-3.5 0-2.4 0.7-4.3 2-5.9 1.3-1.5 3.1-2.3 5.2-2.3 1.3 0 2.3 0.3 2.9 0.8 0.6 0.5 0.9 1.7 0.9 3.3-1.8-1.1-3.7-1.7-5.6-1.7-0.4 0-1 0.2-1.6 0.7-0.6 0.5-1 1-1 1.5 0 2.8 2.3 4.2 7 4.2 4.1 0 6.2-1.4 6.2-4.3 0-3.5-1.5-6.4-4.4-8.6-3-2.2-6.4-3.3-10.4-3.3-5 0-8.6 2.4-10.9 7.1-2.3 4.7-3.8 12.1-4.7 21.9-0.9 9.9-1.3 16.5-1.4 19.9-0.5 17.4-6.7 36.1-18.6 56h-2.6c-0.4-5.5-1.5-11.8-3.3-18.8-1.8-7-4.7-17.9-8.8-32.5-4.1-14.6-7.7-25.3-10.8-32.1-3.1-6.8-6.2-13.8-9.4-21.1l-13.9 1.7-0.7-4c18.2-1 31.7-2.8 40.7-5.4 0.6 2 0.9 3.4 0.9 4.2l-14.8 1.9c6 12.8 14.3 45 24.9 96.4zM275.2 304.8l12.5-30.5c2.5-6.3 3.8-11.7 3.8-16.2 0-4-2.4-6.4-7.1-7.3-1.3-0.2-2-0.8-2-1.7 0-1.2 0.6-1.8 1.9-1.8 0.6 0 1.5 0.1 2.7 0.3 1 0.1 2.8 0.2 5.4 0.2 5.1 0 8.4-0.1 10.1-0.3 1.4-0.1 2.3-0.2 2.7-0.2 1.2 0 1.7 0.5 1.7 1.4 0 0.7-1.1 1.5-3.1 2.4-2 0.9-3.9 3.6-5.7 7.9L274 317.7c-0.6 1.4-1.4 2.2-2.4 2.2-1.2 0-2.1-0.8-2.7-2.4l-21.4-56.7c-2-5.2-4.7-8.5-8.1-10-1-0.4-1.6-1-1.6-1.8 0-1.2 0.7-1.8 2.2-1.8 0.4 0 1 0.1 1.7 0.2 2.4 0.3 6.9 0.5 13.4 0.5 3 0 5.1-0.1 6.3-0.2 1.6-0.2 2.7-0.3 3.3-0.3 1.1-0.1 1.7 0.5 1.7 1.8 0 0.9-0.7 1.4-2.1 1.6-4.5 0.7-6.7 2.3-6.7 5 0 1.4 0.4 3.3 1.3 5.7l16.3 43.3zM662.8 777.3l-13.2 39.5h-8.3l-13.1-39.5h6l7 21.5 2.2 6.7 1 3.4 1.1 3.4h0.2l1-3.4 1-3.4 2.1-6.7 6.7-21.6h6.3zM684 776.7c7.3 0 12.1 1.3 14.2 3.8s3.3 8.1 3.3 16.5c0 8.5-1.1 14-3.3 16.5-2.2 2.5-6.9 3.8-14.2 3.8-7.3 0-12-1.3-14.2-3.8-2.2-2.5-3.3-8.1-3.3-16.5 0-8.5 1.1-14 3.3-16.5s6.9-3.8 14.2-3.8z m0 4.8c-5.1 0-8.3 0.8-9.5 2.5-1.2 1.7-1.8 6-1.8 13.1 0 7 0.6 11.4 1.8 13.1 1.2 1.7 4.4 2.5 9.5 2.5 5.2 0 8.3-0.8 9.6-2.5 1.2-1.7 1.8-6 1.8-13.1 0-7-0.6-11.4-1.8-13.1-1.3-1.7-4.5-2.5-9.6-2.5zM716.3 760.3v6.5h-5.8v-6.5h5.8z m0 17v39.5h-5.8v-39.5h5.8zM747.4 777.3v4.8h-15.2v24.2c0 4.2 1.9 6.3 5.6 6.3 3.7 0 5.6-1.9 5.6-5.7V805l0.1-2.2h5.4v2.9c0 7.8-3.7 11.7-11.1 11.7-7.6 0-11.5-3.2-11.5-9.7V782.1h-5.5v-4.8h5.5v-9.5h5.8v9.5h15.3zM786.3 777.3v39.5h-5.8l0.4-5.2-0.1-0.1c-2 3.9-6.3 5.9-12.9 5.9-9.2 0-13.9-4.6-13.9-13.8v-26.3h5.8v26.3c0 3.6 0.6 6 1.8 7.2 1.2 1.2 3.5 1.8 7 1.8 4.6 0 7.7-0.9 9.4-2.7s2.5-5.1 2.5-9.9v-22.7h5.8zM797.6 777.3h5.8l-0.6 4.6 0.1 0.1c2.3-3.7 6.1-5.6 11.3-5.6 7.3 0 10.9 3.8 10.9 11.3v2.7h-5.7l0.1-1c0.1-1 0.1-1.8 0.1-2.1 0-4.1-2.2-6.1-6.6-6.1-6.5 0-9.7 4-9.7 12v23.7h-5.8v-39.6zM858.3 804.9h5.9v1.4c0 4.1-1.2 7-3.7 8.6s-6.9 2.5-13.1 2.5c-7.3 0-12.1-1.3-14.3-4-2.3-2.7-3.4-8.3-3.4-16.8 0-7.9 1.1-13.2 3.4-15.9 2.3-2.7 6.8-4.1 13.4-4.1 7.3 0 12.1 1.2 14.3 3.5 2.3 2.3 3.4 7.3 3.4 14.8v3.1h-28.5c0 6.2 0.7 10.2 2 11.9 1.3 1.7 4.5 2.6 9.4 2.6 4.7 0 7.7-0.4 9.1-1.2 1.4-0.8 2.1-2.6 2.1-5.3v-1.1z m0-11.3v-1.9c0-4.3-0.7-7.1-2.1-8.3-1.4-1.3-4.4-1.9-9.1-1.9-4.7 0-7.7 0.8-9.1 2.3-1.4 1.5-2.1 4.8-2.1 9.9h22.4z" fill="#F7F8F8" p-id="2870"></path><path d="M896.2 643.8c-4.4-69.4-64.1-124.2-113.5-124.2h-566c-49.4 0-99.7 54.8-104.1 124.2h783.6z" fill="#9E1515" p-id="2871"></path><path d="M789.5 542c0.5-6.3 0.8-12.6 0.8-19 0-145.1-121.7-262.6-271.8-262.6-150.2 0-271.9 117.6-271.9 262.6 0 6.4 0.3 12.7 0.8 19h542.1z" fill="#9E1515" p-id="2872"></path><path d="M728.3 519.6c0.4-4.9 0.6-9.8 0.6-14.7 0-112.3-94.2-203.3-210.4-203.3s-210.4 91-210.4 203.3c0 4.9 0.2 9.8 0.6 14.7h419.6z" fill="#EDEDCC" p-id="2873"></path><path d="M500.8 283.3H536v258.8h-35.2z" fill="#9E1515" p-id="2874"></path><path d="M287.9 668.5m-65.6 0a65.6 65.6 0 1 0 131.2 0 65.6 65.6 0 1 0-131.2 0Z" fill="#27444C" p-id="2875"></path><path d="M287.9 668.5m-36.2 0a36.2 36.2 0 1 0 72.4 0 36.2 36.2 0 1 0-72.4 0Z" fill="#EDEDCC" p-id="2876"></path><path d="M753.5 668.5m-65.6 0a65.6 65.6 0 1 0 131.2 0 65.6 65.6 0 1 0-131.2 0Z" fill="#27444C" p-id="2877"></path><path d="M753.5 668.5m-36.2 0a36.2 36.2 0 1 0 72.4 0 36.2 36.2 0 1 0-72.4 0Z" fill="#EDEDCC" p-id="2878"></path></svg>